<svg version="1.1" id="Layer_1" xmlns="http://www.w3.org/2000/svg" xmlns:xlink="http://www.w3.org/1999/xlink" x="0px" y="0px" viewBox="0 0 195.7 130.2" style="enable-background:new 0 0 195.7 130.2;" xml:space="preserve">
	<style type="text/css">
		.st0{fill:#FFFFFF;}
		.st1{fill-rule:evenodd;clip-rule:evenodd;fill:#FFFFFF;}
	</style>
	<g>
		<path class="st0" d="M19.8,91.9c-0.4,0-0.7-0.1-1-0.2L17.6,91c-0.2-0.1-0.4-0.1-0.7,0l-1.3,0.6c-0.8,0.4-1.5,0.2-2,0L12.4,91 c-0.2-0.1-0.4-0.1-0.7,0l-1.1,0.5c-0.8,0.3-1.4,0.3-2.2,0l-1.2-0.5c-0.2-0.1-0.3-0.2-0.6,0l-1.1,0.5c-0.4,0.2-0.9,0.3-1.4,0.2 c-0.4-0.1-0.7-0.6-0.5-1c0.1-0.4,0.5-0.7,1-0.5c0,0,0.2,0,0.4-0.1l1.1-0.5c0.9-0.4,1.6-0.2,2,0L9,90.2c0.4,0.1,0.6,0.1,0.9,0 l1.1-0.5c0.7-0.3,1.4-0.3,2.1,0l1.2,0.5c0.4,0.2,0.5,0.1,0.8,0l1.4-0.6c0.7-0.2,1.3-0.2,1.9,0l1.3,0.6c0.2,0.1,0.4,0.1,0.7,0 l1.3-0.6c0.9-0.4,1.6-0.2,2,0l1.1,0.5c0.3,0.1,0.5,0.1,0.9,0l1.2-0.5c0.7-0.3,1.4-0.3,2.1,0.1l1.1,0.5c0.3,0.1,0.4,0.1,0.7,0 l1.2-0.6c0.7-0.3,1.5-0.3,2.2,0l1.3,0.6c0.1,0.1,0.2,0.1,0.5-0.1l1.1-0.5c0.8-0.4,1.5-0.4,2.3,0l1.1,0.5c0.3,0.1,0.4,0.1,0.6,0 l1.2-0.6c0.9-0.5,1.6-0.2,2.2,0l1.2,0.5c0.2,0.1,0.3,0.1,0.6,0l1.4-0.6c0.7-0.3,1.4-0.3,2.1,0l1.1,0.5c0.4,0.2,0.4,0.2,0.9,0l1-0.5 c0.8-0.3,1.5-0.3,2.2,0l0.9,0.4c0.6,0.3,0.6,0.3,1.1,0l1-0.5c0.7-0.3,1.4-0.3,2.1,0l1.2,0.6c0.4,0.2,0.4,0.2,0.9-0.1l1-0.5 c0.7-0.4,1.4-0.4,2.1,0l1.1,0.5c0.5,0.2,0.5,0.2,1,0l1-0.5c0.8-0.4,1.5-0.4,2.3,0l0.9,0.5c0.3,0.2,0.5,0.2,0.8,0l1.1-0.5 c0.8-0.4,1.5-0.4,2.3,0l1,0.5c0.3,0.2,0.5,0.2,1-0.1l0.9-0.5c0.7-0.4,1.4-0.4,2.1,0l1.1,0.6c0.3,0.1,0.5,0.1,0.9,0l1.2-0.6 c0.8-0.4,1.5-0.4,2.2,0.1l0.9,0.5c0.3,0.2,0.5,0.2,0.8,0l1-0.5c0.8-0.5,1.5-0.5,2.4,0l0.9,0.4c0.4,0.2,0.5,0.2,0.9,0l1.1-0.5 c0.8-0.4,1.5-0.4,2.3,0l1.1,0.5c0.3,0.2,0.4,0.1,0.7,0l1.2-0.6c0.7-0.4,1.5-0.4,2.2,0l1.2,0.6c0.3,0.1,0.4,0.1,0.7,0l1.2-0.6 c0.8-0.4,1.3-0.4,2.1,0l1,0.5c0.5,0.2,0.5,0.2,1,0l1.1-0.5c0.8-0.4,1.4-0.4,2.2,0.1l1,0.5c0.4,0.2,0.5,0.2,0.8,0l1-0.5 c0.8-0.5,1.5-0.5,2.4,0l1,0.5c0.2,0.1,0.4,0.2,0.8,0l1.2-0.6c0.6-0.3,1.2-0.5,2.1,0l0.9,0.5c0.6,0.3,0.6,0.3,1.1,0l0.9-0.5 c0.8-0.4,1.6-0.4,2.4,0l1,0.5c0.4,0.2,0.4,0.2,0.9,0l1-0.5c0.8-0.4,1.5-0.4,2.3,0l1,0.5c0.2,0.1,0.4,0.2,0.9-0.1l1-0.5 c0.8-0.4,1.4-0.4,2.2,0l1.1,0.6c0.4,0.2,0.4,0.2,0.9,0l1.2-0.6c0.8-0.4,1.4-0.2,1.8,0l1,0.5c0.6,0.3,0.6,0.3,1.1,0l1-0.5 c0.8-0.4,1.5-0.4,2.4,0l1,0.5c0.4,0.2,0.4,0.2,0.8,0l1.1-0.6c0.7-0.4,1.3-0.3,2,0l1.1,0.5c0.5,0.2,0.5,0.2,1,0l1.1-0.5 c0.8-0.3,1.3-0.4,2.2,0l0.9,0.5c0.5,0.2,0.5,0.2,1,0l1-0.5c1-0.4,1.6-0.3,2.3,0.1l0.9,0.5c0.3,0.1,0.4,0.1,0.8-0.1l1.3-0.6 c0.7-0.3,1.3-0.4,2.1,0.1l0.9,0.5c0.5,0.2,0.5,0.2,1.1,0l1-0.5c0.8-0.3,1.3-0.4,2.2,0.1l1,0.6c0.3,0.1,0.3,0.1,0.9-0.1l1-0.5 c0.9-0.5,1.5-0.3,2.2,0.1l1.1,0.5c0.4,0.2,0.4,0.2,0.9-0.1l1.1-0.6c0.6-0.4,1.4-0.4,2,0l1,0.5c0.5,0.2,0.5,0.2,1,0l1.2-0.6 c0.6-0.3,1.3-0.3,2,0l1.3,0.7c0.3-0.1,0.6,0,0.8,0.2c0.3,0.3,0.3,0.8,0,1.1c-0.3,0.3-0.9,0.4-1.4,0.2l-1.5-0.8 c-0.2-0.1-0.3-0.1-0.5,0l-1.2,0.6c-1,0.5-1.5,0.5-2.4,0l-1.1-0.6c-0.2-0.1-0.3-0.1-0.5,0l-1.2,0.6c-0.9,0.5-1.4,0.5-2.3,0.1 l-1.1-0.6c-0.4-0.2-0.4-0.2-0.8,0l-1,0.5c-0.7,0.4-1.3,0.6-2.3,0.2l-1.1-0.6c-0.4-0.2-0.5-0.2-0.9,0l-1,0.5c-0.9,0.4-1.4,0.5-2.4,0 l-1-0.5c-0.4-0.2-0.5-0.2-0.8-0.1l-1.2,0.6c-0.8,0.4-1.4,0.4-2.2,0l-1-0.5c-0.4-0.2-0.5-0.2-1,0l-1,0.5c-0.9,0.5-1.4,0.5-2.3,0 l-0.9-0.5c-0.4-0.2-0.4-0.2-0.9,0l-1.1,0.5c-0.9,0.4-1.3,0.5-2.3,0l-1.1-0.5c-0.4-0.2-0.4-0.2-0.6-0.1l-1.2,0.6 c-0.9,0.4-1.3,0.5-2.2,0l-1.1-0.5c-0.4-0.2-0.5-0.2-0.9,0l-1,0.5c-0.9,0.4-1.3,0.5-2.5,0l-1.1-0.5c-0.1-0.1-0.2-0.1-0.4,0l-1.2,0.6 c-0.8,0.4-1.3,0.6-2.4,0l-1.1-0.6c-0.3-0.1-0.5-0.1-0.8,0l-1,0.5c-0.7,0.3-1.4,0.6-2.3,0.1l-1-0.5c-0.4-0.2-0.5-0.2-0.9,0l-1,0.5 c-0.9,0.4-1.5,0.4-2.3,0l-1-0.5c-0.4-0.2-0.5-0.2-0.9,0l-0.9,0.5c-1,0.5-1.5,0.5-2.6,0l-0.9-0.5c-0.3-0.1-0.3-0.1-0.7,0l-1.2,0.6 c-0.8,0.4-1.5,0.3-2.2,0l-1-0.5c-0.3-0.2-0.5-0.2-0.9,0l-1,0.5c-0.7,0.4-1.5,0.4-2.3,0l-1-0.5c-0.4-0.2-0.4-0.2-0.8-0.1l-1.1,0.5 c-0.9,0.4-1.3,0.5-2.3,0l-1.1-0.5c-0.4-0.2-0.4-0.2-0.7,0l-1.2,0.6c-0.7,0.4-1.3,0.4-2.1,0l-1.2-0.6c-0.3-0.1-0.5-0.1-0.8,0 l-1.2,0.6c-0.7,0.3-1.3,0.3-2.1,0L96,91c-0.3-0.2-0.6-0.2-0.9,0l-1,0.5c-0.9,0.5-1.6,0.4-2.3,0L90.8,91c-0.5-0.3-0.6-0.2-0.9,0 l-1.1,0.5c-0.8,0.4-1.4,0.4-2.2,0l-1-0.5c-0.3-0.2-0.5-0.2-0.7-0.1l-1.2,0.6c-0.8,0.4-1.5,0.4-2.3,0L80.3,91 c-0.3-0.2-0.5-0.1-0.7,0l-1,0.5c-0.9,0.5-1.5,0.5-2.4,0.1L75.1,91c-0.3-0.2-0.5-0.2-0.9,0l-1.1,0.5c-0.8,0.4-1.5,0.4-2.2,0L69.9,91 c-0.4-0.2-0.5-0.2-0.9,0l-1,0.5c-0.8,0.4-1.3,0.5-2.3,0L64.6,91c-0.2-0.1-0.4-0.2-0.7,0l-1,0.5c-1,0.5-1.5,0.5-2.3,0.1L59.4,91 c-0.2-0.1-0.4-0.1-0.8,0l-1,0.5c0,0-0.1,0-0.1,0c-0.9,0.4-1.3,0.4-2.4-0.1L54.3,91c-0.3-0.1-0.5-0.1-0.9,0l-1.1,0.5 c-0.9,0.4-1.3,0.4-2.2,0L49,91c-0.3-0.1-0.5-0.1-0.8,0l-1.4,0.6c-0.6,0.2-1.2,0.2-1.8,0l-1.2-0.6c-0.4-0.2-0.6-0.2-0.8-0.1 l-1.2,0.6c-0.6,0.3-1.2,0.3-1.9,0l-1.1-0.5c-0.5-0.2-0.7-0.2-1.1,0l-1.1,0.5c-0.4,0.2-1.1,0.4-1.8,0l-1.3-0.6 c-0.3-0.2-0.7-0.1-0.9,0l-1.2,0.6c-0.7,0.3-1.3,0.3-2,0l-1.1-0.5c-0.3-0.2-0.5-0.2-0.8,0l-1.2,0.5c-0.8,0.3-1.4,0.3-2.2,0L22.8,91 c-0.2-0.1-0.3-0.2-0.7,0l-1.3,0.6C20.5,91.8,20.2,91.9,19.8,91.9L19.8,91.9z"></path>
		<g>
			<path class="st1" d="M11.5,70.6c2,0,3.7,0.6,4.9,1.7c0.7,0.6,1.2,1.4,1.6,2.3c0.3,0.7,0.4,1.5,0.4,2.4c0,1.1-0.3,2.2-0.9,3.2 c-0.7,1.1-1.6,1.9-2.9,2.4c-0.9,0.4-1.9,0.6-3.1,0.6c-2,0-3.7-0.6-4.9-1.7C5.9,80.8,5.4,80,5,79.2c-0.3-0.7-0.4-1.5-0.4-2.3 c0-1.2,0.3-2.3,0.9-3.3c0.7-1.1,1.6-1.9,2.9-2.4C9.3,70.8,10.3,70.6,11.5,70.6L11.5,70.6z M11.5,72.3c-1.6,0-2.8,0.5-3.7,1.4 c-0.8,0.9-1.3,1.9-1.3,3.2c0,1.3,0.4,2.4,1.3,3.2c0.9,0.9,2.2,1.4,3.7,1.4c1.6,0,2.8-0.5,3.7-1.4c0.8-0.9,1.2-1.9,1.2-3.1 c0-1.3-0.4-2.4-1.2-3.3c-0.5-0.5-1-0.8-1.6-1C13,72.4,12.3,72.3,11.5,72.3L11.5,72.3z"></path>
			<path class="st1" d="M31.1,74.6l-0.9,2l-0.2-0.1c0-0.1,0-0.3,0-0.3c0-0.1-0.2-0.2-0.4-0.3C28.9,75.3,28.1,75,27,75 c-1.1,0-1.8,0.3-2.5,0.9c-0.8,0.7-1.2,1.4-1.2,2.5c0,1.2,0.3,2,1.2,2.7c0.7,0.6,1.4,0.7,2.4,0.7c1.1,0,1.9-0.2,2.7-0.8 c0.3-0.3,0.5-0.4,0.5-0.6c0-0.1,0.1-0.1,0-0.3l0.2-0.1l1.4,1.8l-0.2,0.1c-0.2-0.2-0.4-0.2-0.5-0.2c0,0-0.1,0-0.2,0.1 c-0.6,0.5-1.3,0.8-1.9,1c-0.6,0.2-1.4,0.3-2.1,0.3c-1.3,0-2.5-0.4-3.4-1.2c-0.4-0.4-0.8-0.9-1.1-1.4c-0.3-0.7-0.4-1.4-0.4-2.2 c0-1.4,0.6-2.6,1.7-3.5c0.9-0.7,2-1,3.4-1c1.2,0,2.3,0.2,3.4,0.8c0.1,0.1,0.2,0.1,0.2,0.1c0.1,0,0.2-0.1,0.4-0.3L31.1,74.6 L31.1,74.6z"></path>
			<path class="st1" d="M37,78.9v2.9h6.7c0.2,0,0.3-0.2,0.4-0.6h0.2v2H44c0-0.2-0.2-0.3-0.4-0.3h-8.3v-0.3c0.3-0.1,0.3-0.2,0.3-0.5 v-7.4c0-0.4,0-0.4-0.3-0.4V74h7.9c0.4,0,0.5,0,0.7-0.4h0.2v2h-0.2c-0.1-0.4-0.2-0.3-0.7-0.3H37v2.4h4.5c0.2,0,0.2,0,0.3-0.1 c0.1-0.1,0.1-0.1,0.1-0.3h0.2v2H42c-0.1-0.2-0.2-0.3-0.5-0.3H37L37,78.9z"></path>
			<path class="st1" d="M54.8,80.4H50l-0.7,1.5c-0.1,0.2-0.1,0.3-0.1,0.4c0,0.2,0.1,0.3,0.4,0.4v0.2h-2.2v-0.2c0.5-0.1,0.6-0.6,0.8-1 l2.8-6.5c0.2-0.4,0.3-0.6,0.3-0.7c0-0.2-0.1-0.2-0.3-0.3v-0.3h3v0.3c-0.3,0.1-0.2,0.1-0.2,0.3c0,0.1,0,0.4,0.3,0.9l2.9,6.2 c0.2,0.5,0.4,1,0.9,1.1v0.2h-2.4v-0.2c0.3-0.1,0.4-0.1,0.4-0.3c0-0.1-0.1-0.2-0.2-0.5L54.8,80.4L54.8,80.4z M54.3,79.1l-1.9-4 l-1.8,4H54.3L54.3,79.1z"></path>
			<path class="st1" d="M63.4,75.9v6.3c0,0.2,0.2,0.4,0.4,0.4v0.2h-2.2v-0.2c0.3-0.1,0.5-0.2,0.5-0.5v-7.3c0-0.2,0-0.4-0.1-0.5 c-0.1-0.1-0.2-0.2-0.4-0.2V74h3v0.2c-0.7,0.2-0.4,0.4-0.1,0.7l5.2,5.9l0-5.9c0-0.2,0-0.4-0.1-0.5c-0.1-0.1-0.2-0.2-0.4-0.2V74h2.3 v0.2c-0.2,0.1-0.3,0.1-0.4,0.2c-0.1,0.1-0.1,0.2-0.1,0.5V82c0,0.2,0,0.4,0.1,0.5c0.1,0.1,0.2,0.2,0.4,0.2v0.2h-2.7v-0.2 c0.3-0.1,0.4-0.2,0.4-0.3c0-0.1,0-0.1-0.3-0.4L63.4,75.9L63.4,75.9z"></path>
			<path class="st1" d="M99.4,78.9v2.9h6.7c0.2,0,0.3-0.2,0.4-0.6h0.2v2h-0.2c-0.1-0.2-0.2-0.3-0.4-0.3h-8.3v-0.3 c0.3-0.1,0.3-0.2,0.3-0.5v-7.4c0-0.4,0-0.4-0.3-0.4V74h7.9c0.4,0,0.5,0,0.7-0.4h0.2v2h-0.2c-0.1-0.4-0.2-0.4-0.7-0.4h-6.2v2.4h4.5 c0.2,0,0.2,0,0.3-0.1c0.1-0.1,0.1-0.1,0.1-0.3h0.2v2h-0.2c-0.1-0.2-0.2-0.3-0.5-0.3H99.4L99.4,78.9z"></path>
			<path class="st1" d="M112.4,78.9v2.9h6.7c0.2,0,0.3-0.2,0.4-0.6h0.2v2h-0.2c-0.1-0.2-0.2-0.3-0.4-0.3h-8.3v-0.3 c0.3-0.1,0.3-0.2,0.3-0.5v-7.4c0-0.4,0-0.4-0.3-0.4V74h7.9c0.4,0,0.5,0,0.7-0.4h0.2v2h-0.2c-0.1-0.4-0.2-0.4-0.7-0.4h-6.2v2.4h4.5 c0.2,0,0.2,0,0.3-0.1c0.1-0.1,0.1-0.1,0.1-0.3h0.2v2h-0.2c-0.1-0.2-0.2-0.3-0.5-0.3H112.4L112.4,78.9z"></path>
			<path class="st1" d="M84.1,77.6v4.2c0,0.2,0,0.4,0.1,0.5c0.1,0.1,0.2,0.1,0.5,0.2v0.4h-3v-0.4c0.5-0.1,0.5-0.2,0.5-0.7V71.7 c0-0.5,0-0.7-0.5-0.8v-0.3h6.9c0.8,0,2.6,0,3.4,0.5c0.4,0.2,1,0.6,1.2,1.1c0.3,0.5,0.4,1.2,0.4,1.8c0,0.9-0.3,1.9-0.9,2.5 c-0.7,0.6-1.2,0.8-2.2,1l2.8,4.7c0.2,0.3,0.4,0.4,0.7,0.4v0.4h-3.3v-0.4c0.3,0,0.4,0,0.4-0.2c0-0.1-0.1-0.3-0.3-0.6l-2.6-4.1H84.1 L84.1,77.6z M84.1,75.9h4.1c0.7,0,1.2,0,1.5,0c0.3,0,0.7-0.1,1-0.2c0.6-0.3,0.9-0.9,0.9-1.7c0-0.9-0.4-1.1-0.8-1.4 c-0.3-0.2-0.6-0.2-0.9-0.2c-0.3,0-0.9-0.1-1.6-0.1h-4.1V75.9L84.1,75.9z"></path>
			<path class="st1" d="M125.5,78.9V82c0,0.2,0,0.4,0.1,0.5c0.1,0.1,0.1,0.2,0.3,0.2V83h-2.2v-0.2c0.2-0.1,0.3-0.1,0.3-0.2 c0.1-0.1,0.1-0.2,0.1-0.5v-7.2c0-0.2,0-0.4-0.1-0.5c-0.1-0.1-0.1-0.2-0.3-0.2V74h7.5c0.2,0,0.4,0,0.5-0.1c0.1-0.1,0.2-0.1,0.2-0.3 h0.2v1.9h-0.2c0-0.3-0.5-0.3-0.6-0.3h-5.8v2.6h3.8c0.2,0,0.4,0,0.5-0.1c0.1-0.1,0.2-0.2,0.2-0.4h0.2v1.9H130 c-0.1-0.2-0.1-0.2-0.2-0.3c-0.1-0.1-0.3-0.1-0.5-0.1H125.5L125.5,78.9z"></path>
			<path class="st1" d="M153.7,71.8l-1.5,2.4l-0.2-0.1c0-0.2,0-0.4,0-0.5c0-0.1-0.2-0.3-0.5-0.5c-1.1-0.7-2.2-1-3.7-1 c-1.5,0-2.4,0.3-3.4,1c-1.2,0.8-1.6,2-1.6,3.4c0,1.6,0.5,2.6,1.7,3.5c1,0.8,2.1,1.2,3.4,1.2c1.5,0,2.6-0.3,3.7-1.2 c0.4-0.3,0.8-0.6,0.8-0.8c0-0.1,0-0.2-0.1-0.4l0.3-0.2l1.9,2.4l-0.3,0.3c-0.2-0.2-0.4-0.3-0.5-0.3c-0.1,0-0.1,0-0.2,0.1 c-0.8,0.7-1.7,1-2.6,1.3c-0.8,0.3-1.9,0.4-2.9,0.4c-1.8,0-3.2-0.3-4.6-1.3c-0.6-0.4-1.4-1.4-1.8-2.1c-0.5-0.9-0.6-1.9-0.6-2.9 c0-1.9,0.8-3.5,2.3-4.7c1.2-1,2.8-1.4,4.6-1.4c1.6,0,3.1,0.2,4.6,1.1c0.1,0.1,0.4,0.2,0.5,0.2c0.1,0,0.4,0.1,0.6-0.2L153.7,71.8 L153.7,71.8z"></path>
			<path class="st1" d="M159.8,81.7h6c0.2,0,0.4,0.1,0.5,0c0.1-0.1,0.2-0.2,0.2-0.4h0.2v1.9h-0.2c-0.1-0.2-0.1-0.2-0.2-0.2 c-0.1-0.1-0.3,0-0.5,0H158v-0.2c0.2-0.1,0.2-0.1,0.3-0.2c0.1-0.1,0.1-0.2,0.1-0.5v-7.3c0-0.2,0-0.4-0.1-0.5 c-0.1-0.1,0-0.2-0.3-0.2v-0.2h2.2V74c-0.2,0.1-0.3,0.1-0.4,0.2c-0.1,0.1,0,0.2,0,0.5V81.7L159.8,81.7z"></path>
			<path class="st1" d="M170.5,74.7V79c0,0.7,0,1.2,0.1,1.5c0.1,0.3,0.2,0.5,0.5,0.7c0.5,0.4,1.4,0.6,2.6,0.6c1.4,0,2.1-0.2,2.6-0.7 c0.2-0.2,0.3-0.4,0.4-0.7c0.1-0.3,0.1-0.7,0.1-1.4v-4.3c0-0.2,0-0.4-0.1-0.5c-0.1-0.1-0.1-0.2-0.4-0.2v-0.2h2.2V74 c-0.2,0.1-0.3,0.1-0.4,0.2c-0.1,0.1-0.1,0.2-0.1,0.5v4.9c0,0.8-0.1,1.4-0.3,1.7c-0.3,0.6-0.7,1-1.4,1.3c-0.7,0.3-1.6,0.4-2.8,0.4 c-1.7,0-2.8-0.3-3.5-0.9c-0.3-0.3-0.6-0.6-0.7-0.9c-0.1-0.3-0.2-0.9-0.2-1.6v-4.9c0-0.2,0-0.4-0.1-0.5c-0.1-0.1-0.1-0.2-0.4-0.2 v-0.2h2.1V74c-0.2,0.1-0.2,0.1-0.3,0.2C170.5,74.4,170.5,74.5,170.5,74.7L170.5,74.7z"></path>
			<path class="st1" d="M189.7,78.2c0.6,0.2,1.2,1.2,1.2,2.2c0,0.8-0.3,1.4-0.8,1.9c-0.3,0.3-0.6,0.4-1,0.5c-0.4,0.1-0.9,0.2-1.6,0.2 H182v-0.2c0.2-0.1,0.3-0.1,0.3-0.2c0.1-0.1,0.1-0.3,0.1-0.5v-7.3c0-0.2,0-0.4-0.1-0.5c-0.1-0.1-0.1-0.2-0.3-0.2v-0.2h5.4 c0.6,0,1,0,1.4,0.1c0.3,0.1,0.7,0.2,0.9,0.4c0.3,0.2,0.6,0.5,0.7,0.8c0.2,0.4,0.3,0.7,0.3,1.1C190.7,77.1,190.3,77.8,189.7,78.2 L189.7,78.2z M183.7,77.5h3.3c0.5,0,0.9,0,1.2-0.1c0.3,0,0.4-0.1,0.6-0.3c0.2-0.1,0.3-0.6,0.3-0.9c0-0.4-0.2-0.8-0.4-0.9 c-0.2-0.1-0.4-0.3-0.7-0.3c-0.3,0-0.7-0.1-1.2-0.1h-3.2V77.5L183.7,77.5z M183.7,81.7h3.5c0.6,0,1,0,1.3-0.1 c0.3,0,0.5-0.1,0.6-0.3c0.3-0.3,0.3-0.4,0.4-1c0-0.5-0.1-0.8-0.5-1.1c-0.2-0.2-0.4-0.3-0.7-0.4c-0.3,0-0.7-0.1-1.2-0.1h-3.4V81.7 L183.7,81.7z"></path>
		</g>
		<g>
			<path class="st1" d="M104.3,10.5l-0.6,3.4c0,0,0.5,0.7,1.1,1.7l0.7-3.3C105.4,12.3,104.6,10.9,104.3,10.5L104.3,10.5z"></path>
			<path class="st1" d="M104.4,10.2c0,0,0.2-1.2,0.3-1.6c0.1-0.4,0.2-0.6,0.3-0.7c0.1-0.1,0.3-0.2,0.6-0.2c0.2,0,0.3,0.1,0.4,0.2 c0.1,0.1,0.3,0.4,0.2,0.9c-0.1,0.5-0.6,3.1-0.7,3.2C104.9,10.9,104.4,10.2,104.4,10.2L104.4,10.2z"></path>
			<path class="st1" d="M103.6,14.2l-0.6,3.4c0,0,0.5,0.5,1,1.5l0.7-3.3C104.7,15.8,104,14.6,103.6,14.2L103.6,14.2z"></path>
			<path class="st1" d="M120.9,27.1l-5.1-2l3.3-4.6l-15.6,1.3l0.4-2.3c0,0-0.6-1.2-1-1.6l-0.8,4l-22.7,1.9c4.7,1,5.7,1.8,7.9,3.6 c2.2,1.7,4.1,4.4,5.4,8.4c1.3,4,0.5,7.8,0.5,7.8L120.9,27.1z M101.2,23c3.5,0,6.4,3,6.4,6.8c0,3.7-2.9,6.8-6.4,6.8 c-3.5,0-6.4-3-6.4-6.8C94.8,26,97.6,23,101.2,23z"></path>
			<path class="st1" d="M104.8,57.2c-0.2-0.4-0.1-0.2-0.4-0.6l-23.8-34c-0.1-0.2,0-0.6-0.1-0.8c-0.1-0.2-0.3-0.2-0.3-0.2 c0,0-0.2,0-0.2-0.4c0-0.4-0.1-0.7-0.4-0.9c-0.4-0.3-0.9-0.4-1.5,0.1c-0.4,0.3-0.5,0.8-0.4,1.2c0.1,0.4,0.4,0.7,0.6,0.8 c0.2,0.1,0.2,0.2,0.3,0.5c0,0.2,0,0.2,0.1,0.3c0.1,0.1,0.5,0.1,0.5,0.1l24.1,34.2c0,0,0.3,0.5,0.4,0.6c0.1,0.2,0.3,0.4,0.6,0.4 c0.3,0,0.4,0,0.6-0.3C105,58,104.9,57.5,104.8,57.2z"></path>
			<path class="st1" d="M98.6,40.2c0,0-2,11.1-2.1,11.5c-0.1,0.4-0.1,1.6-1.5,1.8c-1.3,0.2-2.2,0.3-2.7,0.4c-0.5,0.1-1.1,0.3-1.5,0.5 c-0.4,0.3-0.5,0.4-0.4,0.9c0,0.5,0.2,0.9,0.4,1.2c0.2,0.2,0.6,0.6,1.2,0.6c0.6,0.1,2.1,0.1,2.9-0.3c0.8-0.4,1.3-1,1.6-1.7 c0.3-0.7,0.3-1.3,0.4-1.9c0.1-0.6,0.7-3.5,0.7-3.6c0-0.1,2.1-10.6,2.1-10.6L98.6,40.2z"></path>
			<path class="st1" d="M101.2,23.5c-3.3,0-6,2.8-6,6.3c0,3.5,2.7,6.3,6,6.3c3.3,0,6-2.8,6-6.3C107.2,26.3,104.5,23.5,101.2,23.5z M102.6,35c-2.3,0.7-4.8-1.1-5.6-4c-0.8-2.9,0.4-5.8,2.7-6.5c2.3-0.7,4.8,1.1,5.6,4C106.1,31.4,104.9,34.3,102.6,35z"></path>
			<path class="st1" d="M105.4,31.6c-0.1,0-0.6-0.3-0.9-0.4c-0.7-0.3-1.3-0.9-1.9-1.5c-0.3-0.2-0.4-0.5-0.4-0.5s0.1-0.1,0.3-0.4 c0.3-0.3,0.5-0.9,0.5-0.9s0.2-0.7-0.3-1.4c-0.5-0.7-1.5-0.7-1.8-0.7c-0.2,0-1.1,0.3-1.5,0.5c-0.4,0.2-2.1,0.8-2.1,0.8 c0.8,0.1,1,0.8,1,0.8l1.5,4.4c0.3,1,0,1.6,0,1.6l2.4-0.9c0,0-0.5-0.1-0.7-0.5c-0.3-0.9-0.5-1.2-0.8-2.3c0.2,0.1,0.8,0.5,1,0.6 c0.2,0.2,0.8,0.7,1.4,1.1c0.5,0.4,1,0.1,1.3,0C104.9,31.9,105.5,31.6,105.4,31.6z"></path>
		</g>
	</g>
</svg>
